<svg width="28" height="28" viewBox="0 0 28 28" fill="none" xmlns="http://www.w3.org/2000/svg">
<circle cx="14" cy="14" r="14" fill="#BFBFBF"/>
<g clip-path="url(#clip0_499_5738)">
<path d="M17.5 7H10.5C8.57517 7 7 8.57449 7 10.5V17.5C7 19.4248 8.57517 21 10.5 21H17.5C19.4248 21 21 19.4248 21 17.5V10.5C21 8.57449 19.4248 7 17.5 7ZM14 16.9166C12.3889 16.9166 11.0833 15.6103 11.0833 14C11.0833 12.3889 12.3889 11.0833 14 11.0833C15.6103 11.0833 16.9167 12.3889 16.9167 14C16.9167 15.6103 15.6103 16.9166 14 16.9166ZM17.7917 11.0833C17.308 11.0833 16.9167 10.6914 16.9167 10.2083C16.9167 9.72511 17.308 9.33328 17.7917 9.33328C18.2754 9.33328 18.6667 9.72511 18.6667 10.2083C18.6667 10.6914 18.2754 11.0833 17.7917 11.0833Z" fill="white"/>
</g>
<defs>
<clipPath id="clip0_499_5738">
<rect width="14" height="14" fill="white" transform="translate(7 7)"/>
</clipPath>
</defs>
</svg>