<svg width="28" height="28" viewBox="0 0 28 28" fill="none" xmlns="http://www.w3.org/2000/svg">
<circle cx="14" cy="14" r="14" fill="#BFBFBF"/>
<g clip-path="url(#clip0_531_5878)">
<path d="M14 6C9.58886 6 6 9.58886 6 14C6 18.4111 9.58886 22 14 22C15.4067 22 16.79 21.6299 18.001 20.9292L17 19.1977C16.0928 19.7226 15.0552 20 14 20C10.6914 20 7.99999 17.3086 7.99999 14C7.99999 10.6914 10.6914 7.99999 14 7.99999C17.3086 7.99999 20 10.6914 20 14V14.8711C20 15.5254 19.5796 16 19 16C18.4487 16 18 15.5513 18 15V11H16.6176C15.9141 10.3854 15.0053 9.99998 14 9.99998C11.7944 9.99998 9.99998 11.7944 9.99998 14C9.99998 16.2056 11.7944 18 14 18C15.0503 18 15.9999 17.5847 16.7144 16.9202C17.2651 17.5747 18.0797 18 19 18C20.6821 18 22 16.6255 22 14.8711V14C22 9.58886 18.4111 6 14 6V6ZM14 16C12.897 16 12 15.103 12 14C12 12.897 12.897 12 14 12C15.103 12 16 12.897 16 14C16 15.103 15.103 16 14 16V16Z" fill="white"/>
</g>
<defs>
<clipPath id="clip0_531_5878">
<rect width="16" height="16" fill="white" transform="translate(6 6)"/>
</clipPath>
</defs>
</svg>
