<svg width="28" height="28" viewBox="0 0 28 28" fill="none" xmlns="http://www.w3.org/2000/svg">
<circle cx="14" cy="14" r="14" fill="#BFBFBF"/>
<circle cx="14" cy="14" r="14" fill="#BFBFBF"/>
<path d="M16.764 19.7962C16.8422 19.7238 16.9036 19.636 16.9439 19.5389L19 9.39044C19 8.7136 18.0509 9.12231 18.0509 9.12231L6.5051 13.5554C6.5051 13.5554 5.95837 13.7387 6.00254 14.076C6.04456 14.416 6.49057 14.5706 6.49057 14.5706L9.39451 15.5265L16.3676 11.1907C16.3676 11.1907 16.7694 10.9507 16.757 11.1907C16.757 11.1907 16.8286 11.2334 16.6116 11.4302C16.3972 11.6275 11.1344 16.2584 11.1344 16.2584L11.1271 16.3199L11.1156 16.311L10.7557 19.4227C10.8063 19.4414 10.861 19.4475 10.9146 19.4404C10.9683 19.4333 11.0192 19.4133 11.0628 19.3822L12.9398 17.7085L15.8644 19.9049C15.9587 19.9564 16.0633 19.9879 16.1713 19.9971C16.2792 20.0064 16.3879 19.9932 16.4901 19.9586C16.5923 19.9239 16.6857 19.8685 16.764 19.7962Z" fill="white"/>
</svg>